<?xml version="1.0" standalone="no"?>
<!DOCTYPE svg PUBLIC "-//W3C//DTD SVG 20010904//EN"
 "http://www.w3.org/TR/2001/REC-SVG-20010904/DTD/svg10.dtd">
<svg version="1.0" xmlns="http://www.w3.org/2000/svg"
 width="432.000000pt" height="432.000000pt" viewBox="0 0 432.000000 432.000000"
 preserveAspectRatio="xMidYMid meet">
<metadata>
Created by potrace 1.14, written by Peter Selinger 2001-2017
</metadata>
<g transform="translate(0.000000,432.000000) scale(0.100000,-0.100000)"
fill="#000000" stroke="none">
<path d="M2059 4207 c-79 -56 -218 -154 -309 -217 -91 -63 -167 -117 -170
-120 -3 -3 -50 -37 -105 -76 -55 -39 -164 -116 -243 -172 -78 -56 -147 -102
-152 -102 -4 0 -10 -4 -12 -9 -2 -7 -175 -131 -282 -203 -10 -7 -31 -23 -46
-35 -15 -13 -30 -23 -33 -23 -4 0 -35 -21 -70 -47 -36 -27 -89 -65 -118 -85
-100 -70 -244 -171 -249 -175 -3 -3 -5 -91 -5 -196 -1 -106 -4 -198 -9 -205
-4 -6 -3 -12 1 -12 12 0 14 -38 2 -46 -6 -3 -4 -15 6 -30 8 -13 11 -24 6 -24
-6 0 -8 -7 -4 -16 3 -9 7 -29 8 -43 1 -14 7 -25 13 -23 7 1 12 -2 12 -8 0 -5
-7 -10 -15 -10 -13 0 -14 -2 -3 -14 7 -8 17 -11 22 -8 6 3 1 -8 -11 -24 -22
-31 -20 -54 3 -54 9 0 12 -5 9 -10 -4 -6 -11 -7 -17 -4 -7 4 -7 0 0 -13 6 -11
9 -28 7 -39 -2 -10 -4 -24 -4 -31 -1 -6 -8 -18 -16 -26 -13 -13 -13 -16 1 -21
10 -4 13 -2 8 7 -4 7 -3 9 2 4 5 -5 9 -12 9 -15 0 -4 4 -13 9 -20 7 -11 4 -11
-13 0 -17 10 -23 10 -33 -1 -8 -9 -8 -11 -1 -7 8 4 11 -4 9 -26 -1 -18 2 -41
6 -50 5 -10 4 -19 -2 -23 -6 -4 -7 -12 -3 -18 4 -6 7 -23 7 -37 1 -14 5 -31 9
-37 6 -9 3 -11 -9 -6 -14 5 -15 3 -6 -13 7 -14 7 -25 0 -38 -9 -16 -8 -18 8
-13 18 7 18 6 0 -8 -14 -11 -16 -15 -5 -15 12 0 12 -2 -1 -10 -14 -9 -7 -14
15 -11 6 1 3 -4 -5 -11 -22 -19 -20 -229 3 -252 8 -9 20 -16 26 -16 6 0 11 -4
11 -10 0 -5 7 -10 15 -10 8 0 15 -3 15 -8 0 -4 18 -18 40 -32 22 -14 40 -28
40 -32 0 -5 6 -8 14 -8 8 0 16 -6 19 -14 3 -8 22 -22 41 -31 20 -10 36 -21 36
-26 0 -5 5 -9 11 -9 6 0 17 -6 24 -12 22 -20 37 -31 85 -63 25 -16 46 -33 48
-37 2 -5 8 -8 13 -8 6 0 19 -9 31 -20 12 -10 25 -17 30 -14 4 3 8 0 8 -6 0 -5
15 -19 32 -30 46 -27 68 -43 84 -58 8 -7 14 -10 14 -6 0 4 6 0 13 -11 9 -11
19 -15 27 -10 8 5 11 4 7 -2 -4 -5 5 -16 18 -23 14 -7 25 -17 25 -22 0 -5 4
-6 10 -3 6 3 10 1 10 -5 0 -6 4 -8 10 -5 5 3 10 -1 10 -9 0 -9 9 -16 21 -16
11 0 17 -4 14 -10 -3 -5 0 -10 8 -10 8 0 25 -10 38 -22 14 -13 29 -25 34 -27
6 -2 29 -16 51 -32 23 -15 44 -26 48 -24 3 3 4 2 1 -2 -3 -3 19 -22 48 -41 28
-20 55 -40 59 -46 4 -6 8 -7 8 -3 0 7 11 0 45 -31 8 -7 15 -10 15 -5 0 4 5 0
11 -9 5 -10 14 -18 20 -18 5 0 15 -4 22 -10 54 -44 76 -60 82 -60 3 0 13 -6
20 -12 34 -30 45 -38 55 -38 6 0 13 -7 16 -15 4 -8 10 -12 15 -9 5 3 9 0 9 -5
0 -6 7 -11 15 -11 8 0 15 -4 15 -8 0 -4 15 -16 32 -27 18 -10 38 -24 45 -29
34 -30 43 -36 53 -36 5 0 10 -4 10 -10 0 -5 7 -10 15 -10 8 0 15 -4 15 -10 0
-5 9 -10 21 -10 11 0 17 -5 14 -10 -3 -6 1 -10 9 -10 9 0 16 -4 16 -10 0 -5 7
-10 15 -10 8 0 15 -4 15 -10 0 -5 5 -10 11 -10 6 0 17 -7 26 -15 8 -8 19 -13
24 -10 5 4 9 -1 9 -10 0 -9 4 -13 10 -10 5 3 10 1 10 -5 0 -6 4 -9 9 -6 5 3
12 -1 15 -10 4 -9 13 -14 22 -10 8 3 13 2 10 -3 -3 -5 6 -16 20 -26 14 -9 34
-25 45 -36 16 -16 23 -17 44 -7 14 6 23 13 20 16 -2 3 12 14 33 24 20 11 44
28 53 38 9 11 19 16 23 13 3 -4 6 -1 6 5 0 7 6 12 13 12 7 0 23 9 35 20 12 11
24 20 27 20 6 0 23 12 54 41 9 8 23 13 31 11 7 -3 10 0 6 7 -4 6 -1 11 6 11 7
0 26 11 41 25 15 14 27 23 27 20 0 -5 12 3 45 33 7 6 18 12 23 12 6 0 12 3 14
8 2 4 32 27 68 51 36 24 73 53 84 65 10 11 19 19 20 18 0 -2 13 2 28 9 15 6
25 16 22 20 -3 5 4 9 15 9 12 0 21 5 21 10 0 6 7 10 16 10 8 0 12 4 9 10 -3 5
-1 10 6 10 7 0 27 11 45 25 18 14 38 25 44 25 6 0 8 5 5 10 -3 6 -2 10 3 10
12 0 146 91 150 102 2 4 10 8 18 8 8 0 14 5 14 10 0 6 5 10 11 10 10 0 79 48
90 63 3 5 8 7 10 6 2 -2 38 21 79 51 41 30 95 69 120 85 25 17 50 35 56 40 7
6 55 39 109 75 53 36 108 75 123 87 15 13 30 23 34 23 4 0 13 6 20 12 8 7 21
18 30 23 9 6 54 37 100 70 45 33 87 62 93 64 41 17 40 7 40 623 0 323 4 588 8
588 5 0 5 5 1 12 -9 14 -9 86 0 95 3 3 1 12 -5 20 -6 7 -7 13 -2 13 5 0 10 7
10 15 0 8 -3 15 -7 15 -8 0 -6 37 3 46 11 11 -66 79 -136 123 -21 12 -43 28
-50 35 -6 6 -48 36 -92 66 -44 30 -84 58 -90 62 -5 5 -48 35 -95 68 -82 57
-140 97 -340 237 -52 37 -97 69 -100 72 -3 3 -12 11 -22 16 -15 9 -139 97
-773 544 -115 82 -222 158 -237 170 -14 11 -30 21 -36 21 -5 0 -74 -46 -153
-103z m-1749 -1945 c0 -13 -12 -22 -22 -16 -10 6 -1 24 13 24 5 0 9 -4 9 -8z
m7 -314 c4 1 8 -4 8 -10 1 -7 6 -12 13 -10 7 1 12 -2 12 -7 0 -11 -31 -24 -38
-16 -3 3 0 5 6 5 7 0 5 7 -5 19 -9 11 -23 17 -32 14 -12 -4 -13 -3 -3 4 7 5
10 18 7 29 -4 12 -1 9 8 -6 9 -14 19 -24 24 -22z m70 -53 c0 -8 -4 -12 -9 -9
-5 3 -6 10 -3 15 9 13 12 11 12 -6z m-52 -15 c3 -5 -4 -6 -15 -3 -11 3 -22 9
-25 13 -3 5 4 6 15 3 11 -3 22 -9 25 -13z m29 -7 c3 -11 1 -25 -3 -32 -4 -6
-8 4 -8 24 0 37 5 41 11 8z m-40 -11 c3 -5 -1 -9 -9 -9 -8 0 -12 4 -9 9 3 4 7
8 9 8 2 0 6 -4 9 -8z m106 4 c0 -2 -7 -7 -16 -10 -8 -3 -12 -2 -9 4 6 10 25
14 25 6z m20 -24 c0 -5 -7 -9 -15 -9 -8 0 -12 4 -9 9 3 4 9 8 15 8 5 0 9 -4 9
-8z m35 -22 c-3 -5 -12 -10 -18 -10 -7 0 -6 4 3 10 19 12 23 12 15 0z m-54
-17 c13 -16 12 -17 -3 -4 -10 7 -18 15 -18 17 0 8 8 3 21 -13z m-24 -18 c0 -8
-4 -12 -9 -9 -5 3 -6 10 -3 15 9 13 12 11 12 -6z m83 -9 c-7 -7 -13 -7 -20 0
-6 6 -3 10 10 10 13 0 16 -4 10 -10z m54 -22 c3 -8 2 -12 -4 -9 -6 3 -10 10
-10 16 0 14 7 11 14 -7z m83 -30 c24 -4 27 -13 4 -11 -12 1 -30 10 -39 21 -16
20 -16 20 2 6 10 -8 25 -15 33 -16z m-180 1 c0 -8 -4 -12 -9 -9 -5 3 -6 10 -3
15 9 13 12 11 12 -6z m63 -25 c0 -5 -5 -10 -11 -10 -5 0 -7 5 -4 10 3 6 8 10
11 10 2 0 4 -4 4 -10z m-95 -20 c3 -6 -1 -7 -9 -4 -18 7 -21 14 -7 14 6 0 13
-4 16 -10z m215 0 c0 -5 -2 -10 -4 -10 -3 0 -8 5 -11 10 -3 6 -1 10 4 10 6 0
11 -4 11 -10z m-163 -25 c0 -8 -4 -12 -9 -9 -5 3 -6 10 -3 15 9 13 12 11 12
-6z m37 7 c3 -5 -1 -9 -9 -9 -8 0 -12 4 -9 9 3 4 7 8 9 8 2 0 6 -4 9 -8z m166
-2 c0 -5 -5 -10 -11 -10 -5 0 -7 5 -4 10 3 6 8 10 11 10 2 0 4 -4 4 -10z
m-265 -20 c3 -5 1 -10 -4 -10 -6 0 -11 5 -11 10 0 6 2 10 4 10 3 0 8 -4 11
-10z m141 -16 c1 -9 0 -13 -4 -10 -3 4 -7 14 -8 22 -1 9 0 13 4 10 3 -4 7 -14
8 -22z m40 11 c-1 -8 -5 -17 -8 -21 -5 -4 -4 16 1 34 3 9 9 -1 7 -13z m144 -9
c0 -3 -4 -8 -10 -11 -5 -3 -10 -1 -10 4 0 6 5 11 10 11 6 0 10 -2 10 -4z m111
-113 c13 -17 13 -17 -6 -3 -11 8 -22 16 -24 17 -2 2 0 3 6 3 6 0 17 -8 24 -17z
m49 7 c0 -5 -2 -10 -4 -10 -3 0 -8 5 -11 10 -3 6 -1 10 4 10 6 0 11 -4 11 -10z
m64 -18 c3 -5 -1 -9 -9 -9 -8 0 -12 4 -9 9 3 4 7 8 9 8 2 0 6 -4 9 -8z m-454
-16 c0 -2 -8 -10 -17 -17 -16 -13 -17 -12 -4 4 13 16 21 21 21 13z m490 -26
c0 -5 -5 -10 -11 -10 -5 0 -7 5 -4 10 3 6 8 10 11 10 2 0 4 -4 4 -10z m-100
-4 c0 -2 -8 -10 -17 -17 -16 -13 -17 -12 -4 4 13 16 21 21 21 13z m-160 -16
c0 -5 -5 -10 -11 -10 -5 0 -7 5 -4 10 3 6 8 10 11 10 2 0 4 -4 4 -10z m300
-14 c0 -3 -4 -8 -10 -11 -5 -3 -10 -1 -10 4 0 6 5 11 10 11 6 0 10 -2 10 -4z
m-187 -101 c-3 -9 -8 -14 -10 -11 -3 3 -2 9 2 15 9 16 15 13 8 -4z m325 -50
c-3 -3 -9 2 -12 12 -6 14 -5 15 5 6 7 -7 10 -15 7 -18z m57 -3 c-3 -3 -11 0
-18 7 -9 10 -8 11 6 5 10 -3 15 -9 12 -12z m345 -256 c0 -2 -8 -10 -17 -17
-16 -13 -17 -12 -4 4 13 16 21 21 21 13z m151 -143 c13 -16 12 -17 -3 -4 -17
13 -22 21 -14 21 2 0 10 -8 17 -17z m569 -197 c0 -2 -8 -10 -17 -17 -16 -13
-17 -12 -4 4 13 16 21 21 21 13z m-100 -30 c0 -2 -7 -7 -16 -10 -8 -3 -12 -2
-9 4 6 10 25 14 25 6z m-4 -91 c-1 -8 -5 -17 -8 -21 -5 -4 -4 16 1 34 3 9 9
-1 7 -13z m58 7 c3 -5 -1 -9 -9 -9 -8 0 -12 4 -9 9 3 4 7 8 9 8 2 0 6 -4 9 -8z
m-94 -38 c0 -8 -19 -13 -24 -6 -3 5 1 9 9 9 8 0 15 -2 15 -3z m36 -40 c1 -9 0
-13 -4 -10 -3 4 -7 14 -8 22 -1 9 0 13 4 10 3 -4 7 -14 8 -22z m84 16 c0 -5
-5 -10 -11 -10 -5 0 -7 5 -4 10 3 6 8 10 11 10 2 0 4 -4 4 -10z m-47 -25 c4
-8 3 -16 -1 -19 -4 -3 -9 4 -9 15 -2 23 3 25 10 4z m157 9 c0 -8 -19 -13 -24
-6 -3 5 1 9 9 9 8 0 15 -2 15 -3z m-116 -22 c3 -5 -1 -9 -9 -9 -8 0 -12 4 -9
9 3 4 7 8 9 8 2 0 6 -4 9 -8z m86 -62 c0 -5 -2 -10 -4 -10 -3 0 -8 5 -11 10
-3 6 -1 10 4 10 6 0 11 -4 11 -10z m-166 -18 c3 -5 -1 -9 -9 -9 -8 0 -12 4 -9
9 3 4 7 8 9 8 2 0 6 -4 9 -8z m46 -2 c0 -5 -2 -10 -4 -10 -3 0 -8 5 -11 10 -3
6 -1 10 4 10 6 0 11 -4 11 -10z"/>
<path d="M270 2180 c0 -5 5 -10 11 -10 5 0 7 5 4 10 -3 6 -8 10 -11 10 -2 0
-4 -4 -4 -10z"/>
<path d="M255 2131 c-3 -5 -2 -12 3 -15 5 -3 9 1 9 9 0 17 -3 19 -12 6z"/>
<path d="M230 2036 c0 -2 8 -10 18 -17 15 -13 16 -12 3 4 -13 16 -21 21 -21
13z"/>
</g>
</svg>
